<svg width="0" height="0" class="hidden">
  <symbol xmlns="http://www.w3.org/2000/svg" xml:space="preserve" viewBox="0 0 553.048 553.048" id="android">
    <g xmlns="http://www.w3.org/2000/svg">
      <path d="M76.774 179.141c-9.529 0-17.614 3.323-24.26 9.969-6.646 6.646-9.97 14.621-9.97 23.929v142.914c0 9.541 3.323 17.619 9.97 24.266 6.646 6.646 14.731 9.97 24.26 9.97 9.522 0 17.558-3.323 24.101-9.97 6.53-6.646 9.804-14.725 9.804-24.266V213.039c0-9.309-3.323-17.283-9.97-23.929-6.647-6.646-14.627-9.969-23.935-9.969zM351.972 50.847 375.57 7.315c1.549-2.882.998-5.092-1.658-6.646-2.883-1.34-5.098-.661-6.646 1.989l-23.928 43.88c-21.055-9.309-43.324-13.972-66.807-13.972-23.488 0-45.759 4.664-66.806 13.972l-23.929-43.88c-1.555-2.65-3.77-3.323-6.646-1.989-2.662 1.561-3.213 3.764-1.658 6.646l23.599 43.532c-23.929 12.203-42.987 29.198-57.167 51.022-14.18 21.836-21.273 45.698-21.273 71.628h307.426c0-25.924-7.094-49.787-21.273-71.628-14.181-21.824-33.129-38.819-56.832-51.022zm-136.433 63.318c-2.552 2.558-5.6 3.831-9.143 3.831-3.55 0-6.536-1.273-8.972-3.831-2.436-2.546-3.654-5.582-3.654-9.137 0-3.543 1.218-6.585 3.654-9.137 2.436-2.546 5.429-3.819 8.972-3.819s6.591 1.273 9.143 3.819c2.546 2.558 3.825 5.594 3.825 9.137-.007 3.549-1.285 6.591-3.825 9.137zm140.086 0c-2.441 2.558-5.434 3.831-8.971 3.831-3.551 0-6.598-1.273-9.145-3.831-2.551-2.546-3.824-5.582-3.824-9.137 0-3.543 1.273-6.585 3.824-9.137 2.547-2.546 5.594-3.819 9.145-3.819 3.543 0 6.529 1.273 8.971 3.819 2.438 2.558 3.654 5.594 3.654 9.137 0 3.549-1.217 6.591-3.654 9.137zM123.971 406.804c0 10.202 3.543 18.838 10.63 25.925 7.093 7.087 15.729 10.63 25.924 10.63h24.596l.337 75.454c0 9.528 3.323 17.619 9.969 24.266s14.627 9.97 23.929 9.97c9.523 0 17.613-3.323 24.26-9.97s9.97-14.737 9.97-24.266v-75.447h45.864v75.447c0 9.528 3.322 17.619 9.969 24.266s14.73 9.97 24.26 9.97c9.523 0 17.613-3.323 24.26-9.97s9.969-14.737 9.969-24.266v-75.447h24.928c9.969 0 18.494-3.544 25.594-10.631 7.086-7.087 10.631-15.723 10.631-25.924V185.45h-305.09v221.354zM476.275 179.141c-9.309 0-17.283 3.274-23.93 9.804-6.646 6.542-9.969 14.578-9.969 24.094v142.914c0 9.541 3.322 17.619 9.969 24.266s14.627 9.97 23.93 9.97c9.523 0 17.613-3.323 24.26-9.97s9.969-14.725 9.969-24.266V213.039c0-9.517-3.322-17.552-9.969-24.094-6.647-6.53-14.737-9.804-24.26-9.804z" data-original="#000000"></path>
    </g>
  </symbol>
  <symbol xmlns="http://www.w3.org/2000/svg" xml:space="preserve" viewBox="0 0 22.773 22.773" id="apple">
    <g xmlns="http://www.w3.org/2000/svg">
      <path d="M15.769 0h.162c.13 1.606-.483 2.806-1.228 3.675-.731.863-1.732 1.7-3.351 1.573-.108-1.583.506-2.694 1.25-3.561C13.292.879 14.557.16 15.769 0zM20.67 16.716v.045c-.455 1.378-1.104 2.559-1.896 3.655-.723.995-1.609 2.334-3.191 2.334-1.367 0-2.275-.879-3.676-.903-1.482-.024-2.297.735-3.652.926h-.462c-.995-.144-1.798-.932-2.383-1.642-1.725-2.098-3.058-4.808-3.306-8.276v-1.019c.105-2.482 1.311-4.5 2.914-5.478.846-.52 2.009-.963 3.304-.765.555.086 1.122.276 1.619.464.471.181 1.06.502 1.618.485.378-.011.754-.208 1.135-.347 1.116-.403 2.21-.865 3.652-.648 1.733.262 2.963 1.032 3.723 2.22-1.466.933-2.625 2.339-2.427 4.74.176 2.181 1.444 3.457 3.028 4.209z" data-original="#000000"></path>
    </g>
  </symbol>
  <symbol xmlns="http://www.w3.org/2000/svg" xml:space="preserve" viewBox="0 0 451.846 451.847" id="arrow-right">
    <path d="M345.441 248.292 151.154 442.573c-12.359 12.365-32.397 12.365-44.75 0-12.354-12.354-12.354-32.391 0-44.744L278.318 225.92 106.409 54.017c-12.354-12.359-12.354-32.394 0-44.748 12.354-12.359 32.391-12.359 44.75 0l194.287 194.284c6.177 6.18 9.262 14.271 9.262 22.366 0 8.099-3.091 16.196-9.267 22.373z" data-original="#000000" xmlns="http://www.w3.org/2000/svg"></path>
  </symbol>
  <symbol xmlns="http://www.w3.org/2000/svg" xml:space="preserve" viewBox="0 0 64 64" id="arrow-up">
    <path d="m61.18 49.08-28-36a1.55 1.55 0 0 0-2.36 0l-28 36a1.49 1.49 0 0 0-.17 1.58A1.51 1.51 0 0 0 4 51.5h56a1.51 1.51 0 0 0 1.35-.84 1.49 1.49 0 0 0-.17-1.58z" data-original="#000000" xmlns="http://www.w3.org/2000/svg"></path>
  </symbol>
  <symbol xmlns="http://www.w3.org/2000/svg" xml:space="preserve" viewBox="0 0 32 32" id="hamburger-menu">
    <path d="M29.8 24.05v2.3H2.2v-2.3zm0-9.2v2.3H2.2v-2.3zm0-9.2v2.3H2.2v-2.3z" data-original="#000000" xmlns="http://www.w3.org/2000/svg"></path>
  </symbol>
  <symbol xmlns="http://www.w3.org/2000/svg" xml:space="preserve" viewBox="0 0 548.172 548.172" id="monitor">
    <path d="M534.75 49.965c-8.945-8.945-19.694-13.422-32.261-13.422H45.681c-12.562 0-23.313 4.477-32.264 13.422C4.471 58.913 0 69.663 0 82.226v310.633c0 12.566 4.471 23.315 13.417 32.265 8.951 8.945 19.702 13.414 32.264 13.414h155.318c0 7.231-1.524 14.661-4.57 22.269-3.044 7.614-6.09 14.273-9.136 19.981-3.042 5.715-4.565 9.897-4.565 12.56 0 4.948 1.807 9.24 5.424 12.847 3.615 3.621 7.898 5.435 12.847 5.435h146.179c4.949 0 9.233-1.813 12.848-5.435 3.62-3.606 5.427-7.898 5.427-12.847 0-2.468-1.526-6.611-4.571-12.415-3.046-5.801-6.092-12.566-9.134-20.267-3.046-7.71-4.569-15.085-4.569-22.128h155.318c12.56 0 23.309-4.469 32.254-13.414 8.949-8.949 13.422-19.698 13.422-32.265V82.226c.003-12.563-4.474-23.313-13.423-32.261zm-23.123 269.803c0 2.475-.903 4.613-2.711 6.424-1.81 1.804-3.952 2.707-6.427 2.707H45.681c-2.473 0-4.615-.903-6.423-2.707-1.807-1.817-2.712-3.949-2.712-6.424V82.226c0-2.475.902-4.615 2.712-6.423 1.809-1.805 3.951-2.712 6.423-2.712h456.815c2.471 0 4.617.904 6.42 2.712 1.808 1.809 2.711 3.949 2.711 6.423v237.542z" data-original="#000000" xmlns="http://www.w3.org/2000/svg"></path>
  </symbol>
  <symbol xmlns="http://www.w3.org/2000/svg" xml:space="preserve" viewBox="0 0 512 512" id="multiple">
    <g xmlns="http://www.w3.org/2000/svg">
      <path d="M25 512a25 25 0 0 1-17.68-42.68l462-462a25 25 0 0 1 35.36 35.36l-462 462A24.93 24.93 0 0 1 25 512z" data-original="#000000"></path>
      <path d="M487 512a24.93 24.93 0 0 1-17.68-7.32l-462-462A25 25 0 0 1 42.68 7.32l462 462A25 25 0 0 1 487 512z" data-original="#000000"></path>
    </g>
  </symbol>
  <symbol xmlns="http://www.w3.org/2000/svg" xml:space="preserve" viewBox="0 0 512 512" id="universe">
    <path d="M256 512c140.959 0 256-115.049 256-256C512 115.04 396.951 0 256 0 115.041 0 0 115.049 0 256c0 140.96 115.049 256 256 256zm75.947-43.143c14.505-18.535 25.623-40.643 33.974-62.867h58.966c-24.986 28.11-56.854 49.952-92.94 62.867zM447.423 376h-71.804c8.852-32.188 14.045-67.876 15.149-105h90.722c-2.528 38.388-14.68 74.185-34.067 105zm0-240c19.387 30.815 31.539 66.612 34.067 105h-90.722c-1.104-37.124-6.297-72.812-15.149-105zm-22.537-30H365.92c-8.348-22.205-19.465-44.316-33.974-62.857C368.033 56.058 399.901 77.9 424.886 106zM271 32.566c29.436 9.977 50.553 44.985 62.631 73.434H271zM271 136h73.427c9.538 31.578 15.149 67.403 16.33 105H271zm0 134.99h89.757c-1.181 37.607-6.792 73.432-16.33 105.01H271zm0 135h62.631c-12.098 28.507-33.219 63.476-62.631 73.444zM87.114 406h58.966c8.348 22.205 19.465 44.316 33.974 62.857-36.087-12.914-67.955-34.757-92.94-62.857zM241 479.434c-29.411-9.968-50.531-44.933-62.631-73.434H241zM241 376h-73.427c-9.538-31.578-15.149-67.403-16.33-105H241zm0-135h-89.757c1.181-37.597 6.792-73.422 16.33-105H241zm0-208.434V106h-62.631C190.468 77.502 211.587 42.535 241 32.566zm-60.947 10.577C165.548 61.678 154.431 83.785 146.079 106H87.114c24.985-28.1 56.853-49.943 92.939-62.857zM64.577 135.99h71.804c-8.852 32.198-14.045 67.886-15.149 105.01H30.51c2.528-38.388 14.68-74.185 34.067-105.01zM30.51 271h90.722c1.104 37.124 6.297 72.812 15.149 105H64.577C45.19 345.185 33.038 309.388 30.51 271z" data-original="#000000" xmlns="http://www.w3.org/2000/svg"></path>
  </symbol>
</svg>