<svg xmlns="http://www.w3.org/2000/svg" width="512" height="512" viewBox="0 0 548.172 548.172" style="enable-background:new 0 0 512 512" xml:space="preserve"><path d="M534.75 49.965c-8.945-8.945-19.694-13.422-32.261-13.422H45.681c-12.562 0-23.313 4.477-32.264 13.422C4.471 58.913 0 69.663 0 82.226v310.633c0 12.566 4.471 23.315 13.417 32.265 8.951 8.945 19.702 13.414 32.264 13.414h155.318c0 7.231-1.524 14.661-4.57 22.269-3.044 7.614-6.09 14.273-9.136 19.981-3.042 5.715-4.565 9.897-4.565 12.56 0 4.948 1.807 9.24 5.424 12.847 3.615 3.621 7.898 5.435 12.847 5.435h146.179c4.949 0 9.233-1.813 12.848-5.435 3.62-3.606 5.427-7.898 5.427-12.847 0-2.468-1.526-6.611-4.571-12.415-3.046-5.801-6.092-12.566-9.134-20.267-3.046-7.71-4.569-15.085-4.569-22.128h155.318c12.56 0 23.309-4.469 32.254-13.414 8.949-8.949 13.422-19.698 13.422-32.265V82.226c.003-12.563-4.474-23.313-13.423-32.261zm-23.123 269.803c0 2.475-.903 4.613-2.711 6.424-1.81 1.804-3.952 2.707-6.427 2.707H45.681c-2.473 0-4.615-.903-6.423-2.707-1.807-1.817-2.712-3.949-2.712-6.424V82.226c0-2.475.902-4.615 2.712-6.423 1.809-1.805 3.951-2.712 6.423-2.712h456.815c2.471 0 4.617.904 6.42 2.712 1.808 1.809 2.711 3.949 2.711 6.423v237.542z" data-original="#000000" xmlns="http://www.w3.org/2000/svg"/></svg>