<svg xmlns="http://www.w3.org/2000/svg" width="512" height="512" style="enable-background:new 0 0 512 512" xml:space="preserve"><path d="M256 512c140.959 0 256-115.049 256-256C512 115.04 396.951 0 256 0 115.041 0 0 115.049 0 256c0 140.96 115.049 256 256 256zm75.947-43.143c14.505-18.535 25.623-40.643 33.974-62.867h58.966c-24.986 28.11-56.854 49.952-92.94 62.867zM447.423 376h-71.804c8.852-32.188 14.045-67.876 15.149-105h90.722c-2.528 38.388-14.68 74.185-34.067 105zm0-240c19.387 30.815 31.539 66.612 34.067 105h-90.722c-1.104-37.124-6.297-72.812-15.149-105zm-22.537-30H365.92c-8.348-22.205-19.465-44.316-33.974-62.857C368.033 56.058 399.901 77.9 424.886 106zM271 32.566c29.436 9.977 50.553 44.985 62.631 73.434H271zM271 136h73.427c9.538 31.578 15.149 67.403 16.33 105H271zm0 134.99h89.757c-1.181 37.607-6.792 73.432-16.33 105.01H271zm0 135h62.631c-12.098 28.507-33.219 63.476-62.631 73.444zM87.114 406h58.966c8.348 22.205 19.465 44.316 33.974 62.857-36.087-12.914-67.955-34.757-92.94-62.857zM241 479.434c-29.411-9.968-50.531-44.933-62.631-73.434H241zM241 376h-73.427c-9.538-31.578-15.149-67.403-16.33-105H241zm0-135h-89.757c1.181-37.597 6.792-73.422 16.33-105H241zm0-208.434V106h-62.631C190.468 77.502 211.587 42.535 241 32.566zm-60.947 10.577C165.548 61.678 154.431 83.785 146.079 106H87.114c24.985-28.1 56.853-49.943 92.939-62.857zM64.577 135.99h71.804c-8.852 32.198-14.045 67.886-15.149 105.01H30.51c2.528-38.388 14.68-74.185 34.067-105.01zM30.51 271h90.722c1.104 37.124 6.297 72.812 15.149 105H64.577C45.19 345.185 33.038 309.388 30.51 271z" data-original="#000000" xmlns="http://www.w3.org/2000/svg"/></svg>