<svg width="0" height="0" class="hidden">
  <symbol xmlns="http://www.w3.org/2000/svg" xml:space="preserve" viewBox="0 0 553.048 553.048" id="android">
    <g xmlns="http://www.w3.org/2000/svg">
      <path d="M76.774 179.141c-9.529 0-17.614 3.323-24.26 9.969-6.646 6.646-9.97 14.621-9.97 23.929v142.914c0 9.541 3.323 17.619 9.97 24.266 6.646 6.646 14.731 9.97 24.26 9.97 9.522 0 17.558-3.323 24.101-9.97 6.53-6.646 9.804-14.725 9.804-24.266V213.039c0-9.309-3.323-17.283-9.97-23.929-6.647-6.646-14.627-9.969-23.935-9.969zM351.972 50.847 375.57 7.315c1.549-2.882.998-5.092-1.658-6.646-2.883-1.34-5.098-.661-6.646 1.989l-23.928 43.88c-21.055-9.309-43.324-13.972-66.807-13.972-23.488 0-45.759 4.664-66.806 13.972l-23.929-43.88c-1.555-2.65-3.77-3.323-6.646-1.989-2.662 1.561-3.213 3.764-1.658 6.646l23.599 43.532c-23.929 12.203-42.987 29.198-57.167 51.022-14.18 21.836-21.273 45.698-21.273 71.628h307.426c0-25.924-7.094-49.787-21.273-71.628-14.181-21.824-33.129-38.819-56.832-51.022zm-136.433 63.318c-2.552 2.558-5.6 3.831-9.143 3.831-3.55 0-6.536-1.273-8.972-3.831-2.436-2.546-3.654-5.582-3.654-9.137 0-3.543 1.218-6.585 3.654-9.137 2.436-2.546 5.429-3.819 8.972-3.819s6.591 1.273 9.143 3.819c2.546 2.558 3.825 5.594 3.825 9.137-.007 3.549-1.285 6.591-3.825 9.137zm140.086 0c-2.441 2.558-5.434 3.831-8.971 3.831-3.551 0-6.598-1.273-9.145-3.831-2.551-2.546-3.824-5.582-3.824-9.137 0-3.543 1.273-6.585 3.824-9.137 2.547-2.546 5.594-3.819 9.145-3.819 3.543 0 6.529 1.273 8.971 3.819 2.438 2.558 3.654 5.594 3.654 9.137 0 3.549-1.217 6.591-3.654 9.137zM123.971 406.804c0 10.202 3.543 18.838 10.63 25.925 7.093 7.087 15.729 10.63 25.924 10.63h24.596l.337 75.454c0 9.528 3.323 17.619 9.969 24.266s14.627 9.97 23.929 9.97c9.523 0 17.613-3.323 24.26-9.97s9.97-14.737 9.97-24.266v-75.447h45.864v75.447c0 9.528 3.322 17.619 9.969 24.266s14.73 9.97 24.26 9.97c9.523 0 17.613-3.323 24.26-9.97s9.969-14.737 9.969-24.266v-75.447h24.928c9.969 0 18.494-3.544 25.594-10.631 7.086-7.087 10.631-15.723 10.631-25.924V185.45h-305.09v221.354zM476.275 179.141c-9.309 0-17.283 3.274-23.93 9.804-6.646 6.542-9.969 14.578-9.969 24.094v142.914c0 9.541 3.322 17.619 9.969 24.266s14.627 9.97 23.93 9.97c9.523 0 17.613-3.323 24.26-9.97s9.969-14.725 9.969-24.266V213.039c0-9.517-3.322-17.552-9.969-24.094-6.647-6.53-14.737-9.804-24.26-9.804z" data-original="#000000"></path>
    </g>
  </symbol>
  <symbol xmlns="http://www.w3.org/2000/svg" xml:space="preserve" viewBox="0 0 512.003 512.003" id="apple">
    <path  d="M351.98 0c-27.296 1.888-59.2 19.36-77.792 42.112-16.96 20.64-30.912 51.296-25.472 81.088 29.824.928 60.64-16.96 78.496-40.096 16.704-21.536 29.344-52 24.768-83.104z" data-original="#000000" xmlns="http://www.w3.org/2000/svg"></path>
    <path  d="M459.852 171.776c-26.208-32.864-63.04-51.936-97.824-51.936-45.92 0-65.344 21.984-97.248 21.984-32.896 0-57.888-21.92-97.6-21.92-39.008 0-80.544 23.84-106.88 64.608-37.024 57.408-30.688 165.344 29.312 257.28 21.472 32.896 50.144 69.888 87.648 70.208 33.376.32 42.784-21.408 88-21.632 45.216-.256 53.792 21.92 87.104 21.568 37.536-.288 67.776-41.28 89.248-74.176 15.392-23.584 21.12-35.456 33.056-62.08-86.816-33.056-100.736-156.512-14.816-203.904z" data-original="#000000" xmlns="http://www.w3.org/2000/svg"></path>
  </symbol>
  <symbol xmlns="http://www.w3.org/2000/svg" xml:space="preserve" viewBox="0 0 443.52 443.52" id="arrow-right">
    <path d="M300.029 221.657 107.295 414.391c-6.663 6.664-6.663 17.468 0 24.132 6.665 6.662 17.468 6.662 24.132 0l204.8-204.8c6.662-6.664 6.662-17.468 0-24.132l-204.8-204.8c-6.78-6.548-17.584-6.36-24.132.42-6.387 6.614-6.387 17.1 0 23.712l192.734 192.734z" fill="#ffffff" data-original="#000000" xmlns="http://www.w3.org/2000/svg"></path>
  </symbol>
  <symbol xmlns="http://www.w3.org/2000/svg" xml:space="preserve" viewBox="0 0 512 512" id="twitter">
    <path xmlns="http://www.w3.org/2000/svg" d="M512 97.248c-19.04 8.352-39.328 13.888-60.48 16.576 21.76-12.992 38.368-33.408 46.176-58.016-20.288 12.096-42.688 20.64-66.56 25.408C411.872 60.704 384.416 48 354.464 48c-58.112 0-104.896 47.168-104.896 104.992 0 8.32.704 16.32 2.432 23.936-87.264-4.256-164.48-46.08-216.352-109.792-9.056 15.712-14.368 33.696-14.368 53.056 0 36.352 18.72 68.576 46.624 87.232-16.864-.32-33.408-5.216-47.424-12.928v1.152c0 51.008 36.384 93.376 84.096 103.136-8.544 2.336-17.856 3.456-27.52 3.456-6.72 0-13.504-.384-19.872-1.792 13.6 41.568 52.192 72.128 98.08 73.12-35.712 27.936-81.056 44.768-130.144 44.768-8.608 0-16.864-.384-25.12-1.44C46.496 446.88 101.6 464 161.024 464c193.152 0 298.752-160 298.752-298.688 0-4.64-.16-9.12-.384-13.568 20.832-14.784 38.336-33.248 52.608-54.496z" fill="#03a9f4" data-original="#03a9f4"></path>
  </symbol>
  <symbol xmlns="http://www.w3.org/2000/svg" xml:space="preserve" viewBox="0 0 479.447 479.447" id="world-lang">
    <path d="M239.446.022c-8.594 0-17.182.462-25.727 1.383-7.832.8-15.568 2.112-23.2 3.704a219.68 219.68 0 0 0-4.432.976A239.735 239.735 0 0 0 67.831 72.301a257.357 257.357 0 0 0-8.8 9.488c-87.06 99.948-76.612 251.548 23.337 338.608 95.688 83.349 239.723 77.803 328.719-12.656a248.136 248.136 0 0 0 8.8-9.488 239.597 239.597 0 0 0 59.56-158.232c0-132.549-107.452-240-240.001-239.999zM78.495 84.301c1.264-1.312 2.576-2.568 3.864-3.84 1.488-1.464 2.968-2.936 4.488-4.352 1.336-1.248 2.712-2.448 4.08-3.664 1.544-1.368 3.08-2.736 4.664-4.056 1.392-1.176 2.824-2.304 4.248-3.44 1.6-1.28 3.2-2.56 4.848-3.792a154.97 154.97 0 0 1 4.424-3.2c1.656-1.184 3.32-2.4 5.008-3.504a214.122 214.122 0 0 1 4.576-3 166.785 166.785 0 0 1 5.168-3.2 260.346 260.346 0 0 1 10.056-5.704c1.6-.853 3.2-1.688 4.8-2.504a233.35 233.35 0 0 1 5.512-2.68c1.6-.76 3.264-1.52 4.912-2.24 1.88-.8 3.784-1.6 5.688-2.4 1.656-.68 3.304-1.344 4.976-1.984 1.936-.736 3.896-1.424 5.856-2.112a248.54 248.54 0 0 1 5.04-1.72c1.992-.64 4-1.232 6.016-1.816 1.688-.488 3.36-.992 5.056-1.448.648-.168 1.296-.304 1.944-.472a198.501 198.501 0 0 0-51.128 83.024 268.7 268.7 0 0 1-54.816-21.096c.264-.28.488-.56.72-.8zm-11.504 12.88a277.951 277.951 0 0 0 60.712 24.16 415.133 415.133 0 0 0-16.152 110.68h-95.92a223.516 223.516 0 0 1 51.36-134.84zm0 285.68a223.545 223.545 0 0 1-51.36-134.84h95.92a415.093 415.093 0 0 0 16.152 110.68 278.14 278.14 0 0 0-60.712 24.16zm114.736 73.568c-1.616-.408-3.288-.936-4.952-1.424-2.024-.592-4.056-1.184-6.056-1.832-1.688-.544-3.352-1.128-5.016-1.712a190.556 190.556 0 0 1-5.88-2.12 219.712 219.712 0 0 1-4.952-1.968c-1.912-.8-3.824-1.6-5.72-2.4a208.937 208.937 0 0 1-4.872-2.224c-1.864-.88-3.72-1.776-5.6-2.704-1.6-.8-3.2-1.6-4.8-2.472-1.808-.968-3.6-1.96-5.392-2.984-1.6-.888-3.12-1.8-4.664-2.728a195.557 195.557 0 0 1-5.216-3.256c-1.52-.968-3.04-1.952-4.536-2.96a221.149 221.149 0 0 1-5.064-3.552c-1.464-1.048-2.928-2.096-4.368-3.2a206.328 206.328 0 0 1-4.896-3.832c-1.416-1.128-2.824-2.248-4.208-3.408-1.6-1.328-3.144-2.712-4.696-4.088-1.36-1.208-2.728-2.4-4.056-3.632-1.528-1.424-3.008-2.904-4.496-4.368-1.288-1.272-2.6-2.528-3.864-3.832-.232-.248-.456-.504-.688-.744a268.507 268.507 0 0 1 54.816-21.104 198.55 198.55 0 0 0 51.128 83.024c-.648-.168-1.304-.304-1.952-.48zm49.72 6.96c-34.232-4.864-64.24-40.592-83.12-93.352a406.55 406.55 0 0 1 83.12-9.784v103.136zm0-119.136a421.293 421.293 0 0 0-88.144 10.512 400.211 400.211 0 0 1-15.752-106.744h103.896v96.232zm0-112.232H127.551a400.13 400.13 0 0 1 15.752-106.744 421.434 421.434 0 0 0 88.144 10.512v96.232zm0-112.232a406.124 406.124 0 0 1-83.12-9.784c18.88-52.76 48.888-88.488 83.12-93.352v103.136zm180.456-22.608a223.545 223.545 0 0 1 51.36 134.84h-95.92a415.093 415.093 0 0 0-16.152-110.68 278.24 278.24 0 0 0 60.712-24.16zm-114.8-73.576c1.68.416 3.352.944 5.016 1.432 2.024.592 4.056 1.184 6.056 1.832 1.688.544 3.352 1.128 5.016 1.712 1.968.68 3.936 1.376 5.88 2.12 1.664.632 3.304 1.296 4.952 1.968 1.912.8 3.824 1.6 5.72 2.4 1.632.72 3.256 1.461 4.872 2.224 1.864.88 3.72 1.776 5.6 2.704 1.6.8 3.2 1.6 4.8 2.472 1.808.968 3.6 1.96 5.392 2.984 1.6.888 3.12 1.8 4.664 2.728a195.557 195.557 0 0 1 5.216 3.256c1.52.968 3.04 1.952 4.536 2.96a220.35 220.35 0 0 1 5.056 3.544 185.57 185.57 0 0 1 4.384 3.2c1.648 1.24 3.264 2.528 4.888 3.824 1.408 1.12 2.824 2.24 4.208 3.408 1.6 1.328 3.144 2.712 4.696 4.088 1.36 1.208 2.728 2.4 4.056 3.632 1.528 1.424 3.008 2.904 4.496 4.368 1.288 1.272 2.6 2.528 3.864 3.832.232.248.456.504.688.744a268.507 268.507 0 0 1-54.816 21.104 198.54 198.54 0 0 0-51.192-83.016c.648.168 1.304.304 1.952.48zm-49.656-6.952c34.232 4.864 64.24 40.592 83.12 93.352a406.55 406.55 0 0 1-83.12 9.784V16.653zm0 119.136a421.293 421.293 0 0 0 88.144-10.512 400.211 400.211 0 0 1 15.752 106.744H247.447v-96.232zm0 112.232h103.896a400.13 400.13 0 0 1-15.752 106.744 421.426 421.426 0 0 0-88.144-10.512v-96.232zm0 215.368V360.253c27.97.39 55.824 3.669 83.12 9.784-18.88 52.76-48.888 88.488-83.12 93.352zm152.952-67.648c-1.264 1.304-2.568 2.56-3.856 3.832-1.488 1.464-2.976 2.944-4.504 4.368-1.328 1.24-2.696 2.4-4.056 3.64-1.552 1.376-3.096 2.752-4.68 4.08-1.4 1.168-2.824 2.296-4.248 3.432-1.6 1.28-3.2 2.56-4.848 3.792a154.97 154.97 0 0 1-4.424 3.2c-1.656 1.184-3.32 2.4-5.008 3.504a186.92 186.92 0 0 1-4.576 2.992 158.284 158.284 0 0 1-5.176 3.2c-1.6.936-3.128 1.848-4.704 2.752a238.159 238.159 0 0 1-10.144 5.456 233.35 233.35 0 0 1-5.512 2.68c-1.6.76-3.264 1.52-4.912 2.24-1.88.8-3.784 1.6-5.688 2.4-1.656.672-3.304 1.344-4.968 1.976-1.952.744-3.912 1.44-5.88 2.12a205.317 205.317 0 0 1-5.016 1.712c-2 .648-4 1.24-6.04 1.824-1.672.496-3.352.992-5.04 1.448-.648.168-1.296.304-1.944.472a198.501 198.501 0 0 0 51.128-83.024 268.7 268.7 0 0 1 54.816 21.096c-.264.288-.488.568-.72.808zm11.504-12.88a277.951 277.951 0 0 0-60.712-24.16 415.133 415.133 0 0 0 16.152-110.68h95.92a223.512 223.512 0 0 1-51.36 134.84z"  data-original="#000000" xmlns="http://www.w3.org/2000/svg"></path>
  </symbol>
</svg>