<svg xmlns="http://www.w3.org/2000/svg" width="512" height="512" viewBox="0 0 479.447 479.447" style="enable-background:new 0 0 512 512" xml:space="preserve"><path d="M239.446.022c-8.594 0-17.182.462-25.727 1.383-7.832.8-15.568 2.112-23.2 3.704a219.68 219.68 0 0 0-4.432.976A239.735 239.735 0 0 0 67.831 72.301a257.357 257.357 0 0 0-8.8 9.488c-87.06 99.948-76.612 251.548 23.337 338.608 95.688 83.349 239.723 77.803 328.719-12.656a248.136 248.136 0 0 0 8.8-9.488 239.597 239.597 0 0 0 59.56-158.232c0-132.549-107.452-240-240.001-239.999zM78.495 84.301c1.264-1.312 2.576-2.568 3.864-3.84 1.488-1.464 2.968-2.936 4.488-4.352 1.336-1.248 2.712-2.448 4.08-3.664 1.544-1.368 3.08-2.736 4.664-4.056 1.392-1.176 2.824-2.304 4.248-3.44 1.6-1.28 3.2-2.56 4.848-3.792a154.97 154.97 0 0 1 4.424-3.2c1.656-1.184 3.32-2.4 5.008-3.504a214.122 214.122 0 0 1 4.576-3 166.785 166.785 0 0 1 5.168-3.2 260.346 260.346 0 0 1 10.056-5.704c1.6-.853 3.2-1.688 4.8-2.504a233.35 233.35 0 0 1 5.512-2.68c1.6-.76 3.264-1.52 4.912-2.24 1.88-.8 3.784-1.6 5.688-2.4 1.656-.68 3.304-1.344 4.976-1.984 1.936-.736 3.896-1.424 5.856-2.112a248.54 248.54 0 0 1 5.04-1.72c1.992-.64 4-1.232 6.016-1.816 1.688-.488 3.36-.992 5.056-1.448.648-.168 1.296-.304 1.944-.472a198.501 198.501 0 0 0-51.128 83.024 268.7 268.7 0 0 1-54.816-21.096c.264-.28.488-.56.72-.8zm-11.504 12.88a277.951 277.951 0 0 0 60.712 24.16 415.133 415.133 0 0 0-16.152 110.68h-95.92a223.516 223.516 0 0 1 51.36-134.84zm0 285.68a223.545 223.545 0 0 1-51.36-134.84h95.92a415.093 415.093 0 0 0 16.152 110.68 278.14 278.14 0 0 0-60.712 24.16zm114.736 73.568c-1.616-.408-3.288-.936-4.952-1.424-2.024-.592-4.056-1.184-6.056-1.832-1.688-.544-3.352-1.128-5.016-1.712a190.556 190.556 0 0 1-5.88-2.12 219.712 219.712 0 0 1-4.952-1.968c-1.912-.8-3.824-1.6-5.72-2.4a208.937 208.937 0 0 1-4.872-2.224c-1.864-.88-3.72-1.776-5.6-2.704-1.6-.8-3.2-1.6-4.8-2.472-1.808-.968-3.6-1.96-5.392-2.984-1.6-.888-3.12-1.8-4.664-2.728a195.557 195.557 0 0 1-5.216-3.256c-1.52-.968-3.04-1.952-4.536-2.96a221.149 221.149 0 0 1-5.064-3.552c-1.464-1.048-2.928-2.096-4.368-3.2a206.328 206.328 0 0 1-4.896-3.832c-1.416-1.128-2.824-2.248-4.208-3.408-1.6-1.328-3.144-2.712-4.696-4.088-1.36-1.208-2.728-2.4-4.056-3.632-1.528-1.424-3.008-2.904-4.496-4.368-1.288-1.272-2.6-2.528-3.864-3.832-.232-.248-.456-.504-.688-.744a268.507 268.507 0 0 1 54.816-21.104 198.55 198.55 0 0 0 51.128 83.024c-.648-.168-1.304-.304-1.952-.48zm49.72 6.96c-34.232-4.864-64.24-40.592-83.12-93.352a406.55 406.55 0 0 1 83.12-9.784v103.136zm0-119.136a421.293 421.293 0 0 0-88.144 10.512 400.211 400.211 0 0 1-15.752-106.744h103.896v96.232zm0-112.232H127.551a400.13 400.13 0 0 1 15.752-106.744 421.434 421.434 0 0 0 88.144 10.512v96.232zm0-112.232a406.124 406.124 0 0 1-83.12-9.784c18.88-52.76 48.888-88.488 83.12-93.352v103.136zm180.456-22.608a223.545 223.545 0 0 1 51.36 134.84h-95.92a415.093 415.093 0 0 0-16.152-110.68 278.24 278.24 0 0 0 60.712-24.16zm-114.8-73.576c1.68.416 3.352.944 5.016 1.432 2.024.592 4.056 1.184 6.056 1.832 1.688.544 3.352 1.128 5.016 1.712 1.968.68 3.936 1.376 5.88 2.12 1.664.632 3.304 1.296 4.952 1.968 1.912.8 3.824 1.6 5.72 2.4 1.632.72 3.256 1.461 4.872 2.224 1.864.88 3.72 1.776 5.6 2.704 1.6.8 3.2 1.6 4.8 2.472 1.808.968 3.6 1.96 5.392 2.984 1.6.888 3.12 1.8 4.664 2.728a195.557 195.557 0 0 1 5.216 3.256c1.52.968 3.04 1.952 4.536 2.96a220.35 220.35 0 0 1 5.056 3.544 185.57 185.57 0 0 1 4.384 3.2c1.648 1.24 3.264 2.528 4.888 3.824 1.408 1.12 2.824 2.24 4.208 3.408 1.6 1.328 3.144 2.712 4.696 4.088 1.36 1.208 2.728 2.4 4.056 3.632 1.528 1.424 3.008 2.904 4.496 4.368 1.288 1.272 2.6 2.528 3.864 3.832.232.248.456.504.688.744a268.507 268.507 0 0 1-54.816 21.104 198.54 198.54 0 0 0-51.192-83.016c.648.168 1.304.304 1.952.48zm-49.656-6.952c34.232 4.864 64.24 40.592 83.12 93.352a406.55 406.55 0 0 1-83.12 9.784V16.653zm0 119.136a421.293 421.293 0 0 0 88.144-10.512 400.211 400.211 0 0 1 15.752 106.744H247.447v-96.232zm0 112.232h103.896a400.13 400.13 0 0 1-15.752 106.744 421.426 421.426 0 0 0-88.144-10.512v-96.232zm0 215.368V360.253c27.97.39 55.824 3.669 83.12 9.784-18.88 52.76-48.888 88.488-83.12 93.352zm152.952-67.648c-1.264 1.304-2.568 2.56-3.856 3.832-1.488 1.464-2.976 2.944-4.504 4.368-1.328 1.24-2.696 2.4-4.056 3.64-1.552 1.376-3.096 2.752-4.68 4.08-1.4 1.168-2.824 2.296-4.248 3.432-1.6 1.28-3.2 2.56-4.848 3.792a154.97 154.97 0 0 1-4.424 3.2c-1.656 1.184-3.32 2.4-5.008 3.504a186.92 186.92 0 0 1-4.576 2.992 158.284 158.284 0 0 1-5.176 3.2c-1.6.936-3.128 1.848-4.704 2.752a238.159 238.159 0 0 1-10.144 5.456 233.35 233.35 0 0 1-5.512 2.68c-1.6.76-3.264 1.52-4.912 2.24-1.88.8-3.784 1.6-5.688 2.4-1.656.672-3.304 1.344-4.968 1.976-1.952.744-3.912 1.44-5.88 2.12a205.317 205.317 0 0 1-5.016 1.712c-2 .648-4 1.24-6.04 1.824-1.672.496-3.352.992-5.04 1.448-.648.168-1.296.304-1.944.472a198.501 198.501 0 0 0 51.128-83.024 268.7 268.7 0 0 1 54.816 21.096c-.264.288-.488.568-.72.808zm11.504-12.88a277.951 277.951 0 0 0-60.712-24.16 415.133 415.133 0 0 0 16.152-110.68h95.92a223.512 223.512 0 0 1-51.36 134.84z" data-original="#000000" xmlns="http://www.w3.org/2000/svg"/></svg>